# Blender v2.93.0 OBJ File: ''
# www.blender.org
mtllib untitled.mtl
o Cube
v 1.239530 0.819308 -0.890112
v 1.039970 -1.165642 -0.748158
v 0.925042 0.991637 1.077475
v 0.725482 -0.993312 1.219429
v -0.725482 0.993312 -1.219429
v -0.925042 -0.991637 -1.077475
v -1.039970 1.165642 0.748158
v -1.239530 -0.819308 0.890112
vt 0.875000 0.500000
vt 0.625000 0.750000
vt 0.625000 0.500000
vt 0.375000 1.000000
vt 0.375000 0.750000
vt 0.625000 0.000000
vt 0.375000 0.250000
vt 0.375000 0.000000
vt 0.375000 0.500000
vt 0.125000 0.750000
vt 0.125000 0.500000
vt 0.625000 0.250000
vt 0.875000 0.750000
vt 0.625000 1.000000
vn 0.0998 0.9925 -0.0710
vn -0.1572 0.0862 0.9838
vn -0.9825 0.0870 -0.1647
vn -0.0998 -0.9925 0.0710
vn 0.9825 -0.0870 0.1647
vn 0.1572 -0.0862 -0.9838
usemtl Material
s off
f 5/1/1 3/2/1 1/3/1
f 3/2/2 8/4/2 4/5/2
f 7/6/3 6/7/3 8/8/3
f 2/9/4 8/10/4 6/11/4
f 1/3/5 4/5/5 2/9/5
f 5/12/6 2/9/6 6/7/6
f 5/1/1 7/13/1 3/2/1
f 3/2/2 7/14/2 8/4/2
f 7/6/3 5/12/3 6/7/3
f 2/9/4 4/5/4 8/10/4
f 1/3/5 3/2/5 4/5/5
f 5/12/6 1/3/6 2/9/6
